<!DOCTYPE svg PUBLIC "-//W3C//DTD SVG 1.1//EN" "http://www.w3.org/Graphics/SVG/1.1/DTD/svg11.dtd">
<!-- Uploaded to: SVG Repo, www.svgrepo.com, Transformed by: SVG Repo Mixer Tools -->
<svg fill="#000000" width="800px" height="800px" viewBox="0 0 24 24" xmlns="http://www.w3.org/2000/svg">
<g id="SVGRepo_bgCarrier" stroke-width="0"/>
<g id="SVGRepo_tracerCarrier" stroke-linecap="round" stroke-linejoin="round"/>
<g id="SVGRepo_iconCarrier">
<path d="M2.019,8.607A4.116,4.116,0,0,1,6.172,5H10l6-3V16l-6-3h0v8a1,1,0,0,1-1,1H7a1,1,0,0,1-1-1V13A4,4,0,0,1,2.019,8.607ZM18,5a1,1,0,0,0,0,2,2,2,0,0,1,0,4,1,1,0,0,0,0,2,4,4,0,0,0,0-8Z"/>
</g>
</svg>